<?xml version="1.0" encoding="UTF-8"?>
<svg version="1.1" xmlns="http://www.w3.org/2000/svg" width="349" height="401">
<path d="M0 0 C2.10225847 0.00720112 4.20451776 0.01416604 6.30677795 0.02084351 C16.79246974 0.05418592 27.27744148 0.10537782 37.76258087 0.22068787 C40.33092513 0.24712536 42.89933844 0.26768559 45.46778107 0.28160095 C74.31500486 0.45808591 98.9420892 6.86717575 122.13129425 24.88615417 C122.74496857 25.36270447 123.35864288 25.83925476 123.99091339 26.33024597 C125.45548308 27.50582524 126.86227236 28.75272104 128.25629425 30.01115417 C128.25629425 30.67115417 128.25629425 31.33115417 128.25629425 32.01115417 C128.84023956 32.25478699 129.42418488 32.4984198 130.0258255 32.74943542 C138.87955838 37.75776418 144.34014898 50.38839145 149.25629425 59.01115417 C149.67910675 59.71756042 150.10191925 60.42396667 150.53754425 61.15177917 C161.02172885 79.9218516 162.19928832 106.01682381 157.29535675 126.50334167 C148.82446889 155.10054958 132.64935318 178.20373354 106.38568878 192.88859558 C90.45457028 201.2870458 74.48205435 204.88004995 56.533638 205.18693542 C55.85639679 205.19893982 55.17915558 205.21094421 54.48139191 205.22331238 C51.68034671 205.27167433 48.87974627 205.31930018 46.07831573 205.33708191 C35.78145162 205.41469946 25.92435816 205.97070555 17.94379425 213.26115417 C17.34953644 213.78193542 16.75527863 214.30271667 16.143013 214.83927917 C11.28384832 220.43285177 8.00757408 227.21793444 4.73236847 233.81608582 C4.09941109 235.07915306 4.09941109 235.07915306 3.45366669 236.36773682 C2.06886375 239.13366009 0.68981816 241.90240859 -0.68901825 244.67131042 C-1.66413835 246.62274567 -2.63955683 248.57403185 -3.61525726 250.525177 C-5.66022888 254.61668168 -7.70251651 258.70951078 -9.74272919 262.8033905 C-12.32360058 267.98195958 -14.90959778 273.15794619 -17.4975071 278.33300114 C-19.5154814 282.36922568 -21.53134437 286.40650183 -23.54655838 290.44410515 C-24.49713563 292.34838622 -25.4481585 294.25244493 -26.39968491 296.15625191 C-32.51709359 308.40121541 -38.50186681 320.70297626 -44.38132477 333.06401062 C-47.15807363 338.89625828 -50.02026349 344.68216641 -52.93120575 350.44865417 C-53.93785154 352.44988817 -54.94436166 354.45119041 -55.950737 356.45256042 C-56.42591766 357.39631531 -56.90109833 358.34007019 -57.39067841 359.31242371 C-58.62708323 361.77854043 -59.85105871 364.25019527 -61.0679245 366.72599792 C-74.38794611 393.81437057 -74.38794611 393.81437057 -86.74370575 398.07365417 C-92.91997726 399.56017915 -98.1319302 399.06590968 -103.99370575 396.69865417 C-109.49657413 393.32189403 -111.9232151 391.31285258 -113.74370575 385.01115417 C-114.40370575 384.68115417 -115.06370575 384.35115417 -115.74370575 384.01115417 C-117.65810552 368.94411897 -107.43209349 354.16558667 -100.8804245 341.24162292 C-97.96185713 335.47323389 -95.14387192 329.66216896 -92.36870575 323.82365417 C-88.5045642 315.69995091 -84.61720872 307.58804338 -80.70183563 299.48890686 C-79.21888769 296.42119346 -77.73715875 293.35289144 -76.2554245 290.28459167 C-75.81802444 289.37884651 -75.81802444 289.37884651 -75.37178802 288.45480347 C-72.28339661 282.05885862 -69.19804534 275.661463 -66.11870575 269.26115417 C-65.63409882 268.25649109 -65.14949188 267.251828 -64.65019989 266.21672058 C-63.7528502 264.34978969 -62.86144984 262.47998307 -61.97710419 260.6068573 C-61.16747376 258.9029795 -60.33791479 257.20840065 -59.48686981 255.52482605 C-57.88764902 252.24430299 -56.7642403 249.77606628 -56.66558075 246.10099792 C-58.32433481 241.34710493 -60.61701567 237.0047018 -62.99370575 232.57365417 C-63.52947235 231.56085388 -64.06523895 230.54805359 -64.61724091 229.50456238 C-68.84839402 221.55778584 -73.24419904 213.70795945 -77.72490692 205.89958191 C-80.76223583 200.58959492 -83.70175512 195.24042771 -86.5366745 189.81974792 C-87.17225294 188.61116993 -87.80783236 187.40259245 -88.44341278 186.1940155 C-89.66913588 183.86103492 -90.87601321 181.52099552 -92.07524872 179.17399597 C-92.6271286 178.1225238 -93.17900848 177.07105164 -93.747612 175.98771667 C-94.23044647 175.05008484 -94.71328094 174.112453 -95.21074677 173.14640808 C-97.01139558 170.63828982 -97.83487484 170.59511684 -100.74370575 170.01115417 C-101.07370575 169.02115417 -101.40370575 168.03115417 -101.74370575 167.01115417 C-101.08370575 166.68115417 -100.42370575 166.35115417 -99.74370575 166.01115417 C-107.72420457 151.14962174 -115.87445443 136.3984856 -124.20366669 121.72990417 C-126.67084377 117.37440576 -129.11814317 113.00800459 -131.55620575 108.63615417 C-131.98312714 107.87447937 -132.41004852 107.11280457 -132.84990692 106.32804871 C-135.74370575 101.12832036 -135.74370575 101.12832036 -135.74370575 100.01115417 C-129.78647371 99.15098924 -124.00082955 98.85098145 -117.98589325 98.84318542 C-117.07920898 98.83985703 -116.17252472 98.83652863 -115.23836517 98.83309937 C-113.33406325 98.82806598 -111.4297526 98.82568992 -109.52544403 98.82585144 C-106.6201864 98.82365529 -103.71530313 98.80543517 -100.810112 98.7865448 C-98.95204037 98.783612 -97.09396695 98.78162645 -95.23589325 98.78068542 C-94.37325867 98.77349991 -93.51062408 98.76631439 -92.62184906 98.75891113 C-87.99803319 98.7763747 -83.95467389 98.88241598 -79.74370575 101.01115417 C-77.96782684 103.36759949 -77.96782684 103.36759949 -76.51714325 106.33927917 C-75.966633 107.43780212 -75.41612274 108.53632507 -74.84893036 109.6681366 C-74.27795624 110.8538324 -73.70698212 112.0395282 -73.11870575 113.26115417 C-72.50594191 114.49452178 -71.8907577 115.72668964 -71.27324677 116.95768738 C-70.33194244 118.83418277 -69.39180127 120.71112154 -68.45862579 122.5916748 C-65.67058523 128.20564378 -62.71017358 133.71194455 -59.68120575 139.19865417 C-58.70321346 140.97983406 -57.72534958 142.76108446 -56.747612 144.54240417 C-56.25921844 145.43056824 -55.77082489 146.3187323 -55.26763153 147.23381042 C-52.5353312 152.21340809 -49.82616269 157.2055169 -47.11870575 162.19865417 C-46.57874969 163.19284363 -46.03879364 164.18703308 -45.48247528 165.21134949 C-42.87393393 170.02650953 -40.29342866 174.85336526 -37.7710495 179.71427917 C-37.31101532 180.59962341 -36.85098114 181.48496765 -36.37700653 182.3971405 C-35.51712177 184.05825984 -34.66235462 185.72204161 -33.81352997 187.38883972 C-32.00631459 191.36735485 -32.00631459 191.36735485 -28.74370575 194.01115417 C-28.66120575 193.49552917 -28.57870575 192.97990417 -28.49370575 192.44865417 C-24.9845132 181.04377838 -14.86342338 171.72719065 -4.74370575 166.01115417 C12.13488103 157.63866258 31.21050099 158.67190017 49.58197784 158.55485535 C52.46067745 158.5330724 55.33875255 158.49368245 58.21723175 158.45256042 C59.07787231 158.45244461 59.93851288 158.4523288 60.82523346 158.45220947 C74.11898789 158.23818502 86.41697073 152.54664762 96.0570755 143.46037292 C107.09501304 131.16767872 112.66318035 116.62272153 112.25629425 100.01115417 C110.68293988 83.26735132 104.27330138 69.82556093 91.25629425 59.01115417 C77.43319933 48.5510239 62.64199129 48.43193547 46.08197784 48.51286316 C43.85835151 48.50903462 41.63472766 48.50341103 39.41110992 48.49613953 C34.64707455 48.4842402 29.88325978 48.4846381 25.11922073 48.49473381 C17.58976867 48.51034709 10.06054161 48.49658279 2.53110504 48.47869873 C-8.01835398 48.45649693 -18.56776293 48.44595201 -29.11724091 48.44694519 C-29.78498139 48.44700351 -30.45272188 48.44706184 -31.14069693 48.44712193 C-33.84696081 48.44738783 -36.55322469 48.44770513 -39.25948856 48.44808519 C-46.73095351 48.44905385 -54.20241706 48.44771956 -61.67388153 48.44499207 C-62.34383092 48.44475217 -63.0137803 48.44451228 -63.70403118 48.44426512 C-74.86560997 48.43986219 -86.02715165 48.42355952 -97.18870676 48.39977127 C-104.67858589 48.38481016 -112.1682648 48.38512684 -119.6581471 48.3972491 C-124.30395156 48.40194426 -128.94967854 48.39446579 -133.59547043 48.38370514 C-135.75504867 48.38129006 -137.91463965 48.3840656 -140.07420349 48.392313 C-143.01320443 48.40286984 -145.95160594 48.39523251 -148.89058685 48.38296509 C-150.1832092 48.39432917 -150.1832092 48.39432917 -151.50194514 48.40592283 C-157.33069393 48.35403632 -157.33069393 48.35403632 -159.39242113 46.64239174 C-161.21087248 44.44720199 -162.45091517 42.11334231 -163.78276825 39.59318542 C-164.35946259 38.51037292 -164.93615692 37.42756042 -165.53032684 36.31193542 C-166.13699188 35.16080261 -166.74365692 34.0096698 -167.36870575 32.82365417 C-168.62124982 30.4641595 -169.8775303 28.10666512 -171.13433075 25.74943542 C-171.74727997 24.59910828 -172.36022919 23.44878113 -172.99175262 22.26359558 C-175.6590063 17.31192983 -178.42844646 12.42021764 -181.25395966 7.55729675 C-183.74370575 3.22033904 -183.74370575 3.22033904 -183.74370575 1.01115417 C-122.50522684 -0.36336508 -61.24999976 -0.21025395 0 0 Z " fill="#C348FD" transform="translate(185.74370574951172,1.9888458251953125)"/>
<path d="M0 0 C-11.62967623 4.56880138 -22.25371402 5.96533497 -34.72265625 6.17578125 C-35.39978165 6.1877655 -36.07690704 6.19974976 -36.77455139 6.21209717 C-39.57571307 6.2605352 -42.37643027 6.30814526 -45.17797852 6.32592773 C-55.47484263 6.40354529 -65.33193609 6.95955137 -73.3125 14.25 C-73.90675781 14.77078125 -74.50101562 15.2915625 -75.11328125 15.828125 C-79.97244593 21.42169759 -83.24872017 28.20678027 -86.52392578 34.80493164 C-87.15688316 36.06799889 -87.15688316 36.06799889 -87.80262756 37.35658264 C-89.1874305 40.12250591 -90.56647609 42.89125442 -91.9453125 45.66015625 C-92.9204326 47.6115915 -93.89585108 49.56287768 -94.87155151 51.51402283 C-96.91652313 55.60552751 -98.95881076 59.6983566 -100.99902344 63.79223633 C-103.57989483 68.97080541 -106.16589203 74.14679202 -108.75380135 79.32184696 C-110.77177565 83.3580715 -112.78763862 87.39534766 -114.80285263 91.43295097 C-115.75342988 93.33723204 -116.70445275 95.24129075 -117.65597916 97.14509773 C-123.76881924 109.38091646 -129.74906591 121.67347167 -135.62388611 134.02539062 C-138.48533127 140.034969 -141.43909167 145.99504779 -144.4375 151.9375 C-144.92669922 152.91138672 -145.41589844 153.88527344 -145.91992188 154.88867188 C-146.85315973 156.74635531 -147.78717774 158.60364715 -148.72216797 160.46044922 C-150.48821067 163.97026508 -152.24452043 167.48489079 -154 171 C-154.66 169.68 -155.32 168.36 -156 167 C-155.01 166.67 -154.02 166.34 -153 166 C-152.27032326 164.02211823 -151.61762813 162.01568349 -151 160 C-149.84202825 157.40354069 -148.54502273 154.88008109 -147.25390625 152.34765625 C-146.69799049 151.24362709 -146.69799049 151.24362709 -146.13084412 150.11729431 C-144.94521688 147.76374455 -143.75431441 145.41292188 -142.5625 143.0625 C-137.65352228 133.36417423 -132.81113483 123.64535662 -128.16015625 113.8203125 C-123.06470319 103.08274859 -117.75986854 92.45447699 -112.4296875 81.83203125 C-112.0037348 80.98281412 -111.5777821 80.13359699 -111.13892174 79.25864601 C-107.14200365 71.29119618 -103.13988121 63.32636612 -99.13378906 55.36352539 C-96.91969848 50.96208034 -94.70948279 46.55870749 -92.50165176 42.15411949 C-91.66668438 40.49037691 -90.83020138 38.82739404 -89.99215317 37.16520119 C-88.83081677 34.86169359 -87.67439258 32.55578231 -86.51904297 30.24926758 C-86.00333992 29.23100388 -86.00333992 29.23100388 -85.47721863 28.19216919 C-83.95823147 25.14787847 -82.76734812 22.30892615 -82 19 C-80.328125 17.21875 -80.328125 17.21875 -78.25 15.5 C-77.52296875 14.89671875 -76.7959375 14.2934375 -76.046875 13.671875 C-75.37140625 13.12015625 -74.6959375 12.5684375 -74 12 C-72.7625 10.88625 -72.7625 10.88625 -71.5 9.75 C-61.19433123 2.53603186 -47.91671531 3.7555842 -35.90600586 3.52319336 C-33.92543901 3.48316496 -31.94512607 3.43114864 -29.96484375 3.37890625 C-28.7955835 3.3538501 -27.62632324 3.32879395 -26.42163086 3.30297852 C-22.73683506 2.97669727 -19.52616161 2.09495077 -16 1 C-13.75776759 0.56230395 -11.50721669 0.16485894 -9.25 -0.1875 C-8.14140625 -0.36667969 -7.0328125 -0.54585937 -5.890625 -0.73046875 C-3 -1 -3 -1 0 0 Z " fill="#8E2DDA" transform="translate(277,201)"/>
<path d="M0 0 C1.61040631 3.80641491 2.15920304 6.17214417 1.375 10.25 C-0.1453178 13.29063561 -1.10215059 14.29216092 -4 16 C-6.796875 16.29296875 -6.796875 16.29296875 -9.75 16.1875 C-11.22726563 16.14689453 -11.22726563 16.14689453 -12.734375 16.10546875 C-13.48203125 16.07066406 -14.2296875 16.03585937 -15 16 C-17.63586995 12.0861325 -18.98165012 10.08264288 -19.0625 5.3125 C-17.78851711 1.34067099 -16.53459749 0.13719848 -13 -2 C-8.69652266 -3.74828767 -3.66797584 -2.78260236 0 0 Z " fill="#EF78FF" transform="translate(98,376)"/>
<path d="M0 0 C30.00658816 -0.22410987 60.00038366 0.41350553 90 1 C90 1.33 90 1.66 90 2 C79.11 2 68.22 2 57 2 C57 2.66 57 3.32 57 4 C36.87 4 16.74 4 -4 4 C-2.68 3.34 -1.36 2.68 0 2 C0 1.34 0 0.68 0 0 Z " fill="#B538EB" transform="translate(156,2)"/>
<path d="M0 0 C-11.62967623 4.56880138 -22.25371402 5.96533497 -34.72265625 6.17578125 C-35.39978165 6.1877655 -36.07690704 6.19974976 -36.77455139 6.21209717 C-39.57571307 6.2605352 -42.37643027 6.30814526 -45.17797852 6.32592773 C-55.61680202 6.40461538 -65.46873365 6.95966195 -73.4375 14.5 C-74.36369141 15.35078125 -74.36369141 15.35078125 -75.30859375 16.21875 C-77.07455069 17.998218 -77.07455069 17.998218 -78.59765625 20.21875 C-79.06042969 20.8065625 -79.52320313 21.394375 -80 22 C-80.66 22 -81.32 22 -82 22 C-82 19 -82 19 -80.42578125 17.31640625 C-79.72839844 16.73761719 -79.03101563 16.15882813 -78.3125 15.5625 C-77.57644531 14.95019531 -76.84039062 14.33789062 -76.08203125 13.70703125 C-75.39496094 13.14371094 -74.70789063 12.58039063 -74 12 C-73.175 11.2575 -72.35 10.515 -71.5 9.75 C-61.19433123 2.53603186 -47.91671531 3.7555842 -35.90600586 3.52319336 C-33.92543901 3.48316496 -31.94512607 3.43114864 -29.96484375 3.37890625 C-28.7955835 3.3538501 -27.62632324 3.32879395 -26.42163086 3.30297852 C-22.73683506 2.97669727 -19.52616161 2.09495077 -16 1 C-13.75776759 0.56230395 -11.50721669 0.16485894 -9.25 -0.1875 C-8.14140625 -0.36667969 -7.0328125 -0.54585937 -5.890625 -0.73046875 C-3 -1 -3 -1 0 0 Z " fill="#9232E0" transform="translate(277,201)"/>
<path d="M0 0 C1.61040631 3.80641491 2.15920304 6.17214417 1.375 10.25 C-0.1453178 13.29063561 -1.10215059 14.29216092 -4 16 C-6.796875 16.29296875 -6.796875 16.29296875 -9.75 16.1875 C-11.22726563 16.14689453 -11.22726563 16.14689453 -12.734375 16.10546875 C-13.48203125 16.07066406 -14.2296875 16.03585937 -15 16 C-17.63586995 12.0861325 -18.98165012 10.08264288 -19.0625 5.3125 C-17.78851711 1.34067099 -16.53459749 0.13719848 -13 -2 C-8.69652266 -3.74828767 -3.66797584 -2.78260236 0 0 Z M-14.4375 1.5 C-16.71029038 5.13646461 -16.28281164 7.75782535 -16 12 C-12.35042135 14.33573034 -9.26089509 14.45652447 -5 14 C-2.41666667 12.58333333 -2.41666667 12.58333333 -1 10 C-0.33323122 6.45749949 -0.33323122 6.45749949 -1 3 C-3.30303842 0.14423236 -4.85455051 0.01818119 -8.5 -0.4375 C-11.97266012 -0.24893683 -11.97266012 -0.24893683 -14.4375 1.5 Z " fill="#E56CFF" transform="translate(98,376)"/>
<path d="M0 0 C1.61655235 0.00212242 1.61655235 0.00212242 3.26576233 0.00428772 C6.68892254 0.00986014 10.112016 0.02240757 13.53515625 0.03515625 C15.86393134 0.04017481 18.19270747 0.0447371 20.52148438 0.04882812 C26.21356423 0.05982054 31.90560547 0.07653111 37.59765625 0.09765625 C37.59765625 0.75765625 37.59765625 1.41765625 37.59765625 2.09765625 C39.90765625 2.09765625 42.21765625 2.09765625 44.59765625 2.09765625 C44.59765625 2.42765625 44.59765625 2.75765625 44.59765625 3.09765625 C38.84000956 3.12282756 33.08239656 3.14073299 27.32470703 3.15258789 C25.37580811 3.15754245 23.42691275 3.16430798 21.47802734 3.1730957 C8.14927026 3.23158534 -5.09721 2.90355994 -18.40234375 2.09765625 C-18.40234375 1.76765625 -18.40234375 1.43765625 -18.40234375 1.09765625 C-12.2462928 0.00685384 -6.24152096 -0.03110428 0 0 Z " fill="#BF3EEA" transform="translate(103.40234375,1.90234375)"/>
<path d="M0 0 C19.58021487 1.87195461 36.25520805 13.80977687 51 26 C50.67 26.66 50.34 27.32 50 28 C47.625 27.6875 47.625 27.6875 45 27 C43 24 43 24 43 21 C42.41863281 20.72542969 41.83726562 20.45085938 41.23828125 20.16796875 C39.05747214 19.02998982 37.18165091 17.74813133 35.1875 16.3125 C24.42750569 9.09220922 12.30217135 4.78662579 0 1 C0 0.67 0 0.34 0 0 Z " fill="#9932DE" transform="translate(263,6)"/>
<path d="M0 0 C-0.3125 2.875 -0.3125 2.875 -1 6 C-4 8 -4 8 -7.0625 7.9375 C-10 7 -10 7 -11.375 4.4375 C-11.58125 3.633125 -11.7875 2.82875 -12 2 C-10.11821903 -0.4044979 -9.00775285 -0.99790027 -6 -1.8125 C-3 -2 -3 -2 0 0 Z " fill="#FA97FE" transform="translate(95,381)"/>
<path d="M0 0 C0.33 0.66 0.66 1.32 1 2 C1.86951294 1.99214478 1.86951294 1.99214478 2.7565918 1.98413086 C5.4002167 1.96325666 8.04382421 1.95030673 10.6875 1.9375 C11.59951172 1.92912109 12.51152344 1.92074219 13.45117188 1.91210938 C14.33740234 1.90888672 15.22363281 1.90566406 16.13671875 1.90234375 C16.94842529 1.89710693 17.76013184 1.89187012 18.59643555 1.88647461 C21.14864673 2.0070209 23.51026137 2.440051 26 3 C26 3.33 26 3.66 26 4 C16.76 4 7.52 4 -2 4 C-1.34 2.68 -0.68 1.36 0 0 Z " fill="#E958FE" transform="translate(84,2)"/>
<path d="M0 0 C0.99 0.66 1.98 1.32 3 2 C1.02 2 -0.96 2 -3 2 C-2.01 1.34 -1.02 0.68 0 0 Z M-5 2 C-4.34 2.33 -3.68 2.66 -3 3 C-3.350625 3.598125 -3.70125 4.19625 -4.0625 4.8125 C-5.33304698 7.10813214 -5.33304698 7.10813214 -4 10 C0.21900957 10.4361141 0.21900957 10.4361141 3.75 8.5 C4.1625 8.005 4.575 7.51 5 7 C5.66 7 6.32 7 7 7 C6.625 8.9375 6.625 8.9375 6 11 C2.97562661 12.5121867 0.33758466 12.17263369 -3 12 C-5.4375 11 -5.4375 11 -7 10 C-7.125 7.125 -7.125 7.125 -7 4 C-6.34 3.34 -5.68 2.68 -5 2 Z " fill="#F585FF" transform="translate(89,378)"/>
<path d="M0 0 C-7.8742164 3.12253409 -14.54757108 4.16904858 -23 4 C-22.67 3.34 -22.34 2.68 -22 2 C-19.5234375 1.40234375 -19.5234375 1.40234375 -16.375 0.9375 C-15.29089844 0.77507812 -14.20679688 0.61265625 -13.08984375 0.4453125 C-12.07019531 0.29835937 -11.05054688 0.15140625 -10 0 C-9.25878906 -0.12632812 -8.51757812 -0.25265625 -7.75390625 -0.3828125 C-4.66851476 -0.90036204 -3.03276082 -1.01092027 0 0 Z " fill="#A033EC" transform="translate(277,201)"/>
<path d="M0 0 C3.2441189 1.04275251 4.60194664 2.61240491 6.3125 5.4375 C8 9 8 9 7 12 C6.34 11.34 5.68 10.68 5 10 C4.01 10.33 3.02 10.66 2 11 C1.34 9.68 0.68 8.36 0 7 C0.66 6.67 1.32 6.34 2 6 C1.34 4.02 0.68 2.04 0 0 Z " fill="#D454F6" transform="translate(84,162)"/>
<path d="M0 0 C0 3 0 3 -1.21484375 4.578125 C-5.87266616 9.09864199 -10.79839224 13.11943548 -16 17 C-16.66 16.67 -17.32 16.34 -18 16 C-16.83333333 14.97916667 -15.66666667 13.95833333 -14.5 12.9375 C-13.77554687 12.30328125 -13.05109375 11.6690625 -12.3046875 11.015625 C-10.79035663 9.69122715 -9.27476849 8.36826524 -7.7578125 7.046875 C-7.05398438 6.43328125 -6.35015625 5.8196875 -5.625 5.1875 C-4.97789062 4.62417969 -4.33078125 4.06085938 -3.6640625 3.48046875 C-2.40551216 2.36077256 -1.1911483 1.1911483 0 0 Z " fill="#8E2CDA" transform="translate(319,171)"/>
<path d="M0 0 C3.83520308 3.28731693 6.32465344 7.25147171 8 12 C7.67 12.66 7.34 13.32 7 14 C3.66144681 11.00681438 1.72601391 8.14243338 0 4 C0 2.68 0 1.36 0 0 Z " fill="#DC5DF4" transform="translate(12,19)"/>
<path d="M0 0 C0.66 0.33 1.32 0.66 2 1 C0.71319131 3.6274838 -0.57917678 6.25196683 -1.875 8.875 C-2.23980469 9.62136719 -2.60460937 10.36773437 -2.98046875 11.13671875 C-3.33496094 11.85214844 -3.68945312 12.56757813 -4.0546875 13.3046875 C-4.37937012 13.96452637 -4.70405273 14.62436523 -5.03857422 15.30419922 C-6 17 -6 17 -8 19 C-8.33 17.68 -8.66 16.36 -9 15 C-8.01 14.67 -7.02 14.34 -6 14 C-5.27566653 12.02015519 -4.62256028 10.01416562 -4 8 C-2.74168512 5.29389425 -1.38263387 2.64445506 0 0 Z " fill="#9630E3" transform="translate(130,353)"/>
<path d="M0 0 C0.33 0.66 0.66 1.32 1 2 C-0.53805649 6.45226878 -1.76456303 9.67734102 -6 12 C-6.66 12 -7.32 12 -8 12 C-8 11.34 -8 10.68 -8 10 C-7.01 9.34 -6.02 8.68 -5 8 C-4.67 7.01 -4.34 6.02 -4 5 C-3.34 5 -2.68 5 -2 5 C-2 3.68 -2 2.36 -2 1 C-1.34 0.67 -0.68 0.34 0 0 Z " fill="#D45AFF" transform="translate(103,380)"/>
<path d="M0 0 C0.33 0.66 0.66 1.32 1 2 C2.953125 1.93489583 4.90625 1.86979167 6.859375 1.8046875 C9 2 9 2 13 4 C7.39 4 1.78 4 -4 4 C-2.68 3.34 -1.36 2.68 0 2 C0 1.34 0 0.68 0 0 Z " fill="#DD4FFD" transform="translate(156,2)"/>
<path d="M0 0 C0.66 0.33 1.32 0.66 2 1 C-1.63 4.96 -5.26 8.92 -9 13 C-9 9.26130751 -8.09514308 8.63449295 -5.625 5.9375 C-4.99851563 5.24527344 -4.37203125 4.55304688 -3.7265625 3.83984375 C-2.50602933 2.53923035 -1.26120903 1.26120903 0 0 Z " fill="#A63AE4" transform="translate(172,174)"/>
<path d="M0 0 C-0.66 0.66 -1.32 1.32 -2 2 C-5.0390625 1.9765625 -5.0390625 1.9765625 -8.625 1.625 C-9.81351563 1.51414062 -11.00203125 1.40328125 -12.2265625 1.2890625 C-13.14179688 1.19367187 -14.05703125 1.09828125 -15 1 C-15 0.67 -15 0.34 -15 0 C-9.65370398 -1.0024305 -5.37625234 -0.84888195 0 0 Z " fill="#B332E7" transform="translate(156,3)"/>
<path d="M0 0 C3.465 1.485 3.465 1.485 7 3 C7 3.99 7 4.98 7 6 C4.625 5.8125 4.625 5.8125 2 5 C0.6875 2.4375 0.6875 2.4375 0 0 Z " fill="#AE3BEE" transform="translate(306,28)"/>
<path d="M0 0 C0.66 0.66 1.32 1.32 2 2 C1.34 2 0.68 2 0 2 C0 1.34 0 0.68 0 0 Z " fill="#E21CFF" transform="translate(87,173)"/>
<path d="" fill="#FF00FF" transform="translate(0,0)"/>
<path d="M0 0 C2 1 2 1 2 1 Z " fill="#FF00FF" transform="translate(118,266)"/>
<path d="M0 0 C2 1 2 1 2 1 Z " fill="#E533FF" transform="translate(247,1)"/>
<path d="" fill="#8080FF" transform="translate(0,0)"/>
<path d="" fill="#808080" transform="translate(0,0)"/>
<path d="" fill="#FF00FF" transform="translate(0,0)"/>
<path d="" fill="#FF00FF" transform="translate(0,0)"/>
<path d="" fill="#AA55FF" transform="translate(0,0)"/>
<path d="" fill="#8080FF" transform="translate(0,0)"/>
<path d="" fill="#FF00FF" transform="translate(0,0)"/>
<path d="" fill="#000000" transform="translate(0,0)"/>
<path d="" fill="#000000" transform="translate(0,0)"/>
<path d="" fill="#FF00FF" transform="translate(0,0)"/>
<path d="" fill="#000000" transform="translate(0,0)"/>
<path d="" fill="#FF00FF" transform="translate(0,0)"/>
<path d="" fill="#FF00FF" transform="translate(0,0)"/>
<path d="" fill="#8080FF" transform="translate(0,0)"/>
<path d="" fill="#FF00FF" transform="translate(0,0)"/>
<path d="" fill="#FF00FF" transform="translate(0,0)"/>
<path d="" fill="#0000FF" transform="translate(0,0)"/>
<path d="" fill="#FF00FF" transform="translate(0,0)"/>
<path d="" fill="#8080FF" transform="translate(0,0)"/>
<path d="" fill="#FF00FF" transform="translate(0,0)"/>
<path d="" fill="#FF00FF" transform="translate(0,0)"/>
<path d="" fill="#808080" transform="translate(0,0)"/>
<path d="" fill="#FF00FF" transform="translate(0,0)"/>
<path d="" fill="#FF00FF" transform="translate(0,0)"/>
<path d="" fill="#FF00FF" transform="translate(0,0)"/>
<path d="" fill="#FF00FF" transform="translate(0,0)"/>
<path d="" fill="#FF00FF" transform="translate(0,0)"/>
<path d="" fill="#FF00FF" transform="translate(0,0)"/>
<path d="" fill="#FF00FF" transform="translate(0,0)"/>
<path d="" fill="#FF80FF" transform="translate(0,0)"/>
<path d="" fill="#FF00FF" transform="translate(0,0)"/>
<path d="" fill="#FF80FF" transform="translate(0,0)"/>
<path d="" fill="#FF00FF" transform="translate(0,0)"/>
<path d="" fill="#FF00FF" transform="translate(0,0)"/>
<path d="" fill="#FF00FF" transform="translate(0,0)"/>
<path d="" fill="#AA55FF" transform="translate(0,0)"/>
<path d="" fill="#FF00FF" transform="translate(0,0)"/>
<path d="" fill="#AA55FF" transform="translate(0,0)"/>
<path d="" fill="#FF00FF" transform="translate(0,0)"/>
<path d="" fill="#FF00FF" transform="translate(0,0)"/>
<path d="" fill="#FF00FF" transform="translate(0,0)"/>
<path d="" fill="#FF00FF" transform="translate(0,0)"/>
<path d="" fill="#FF00FF" transform="translate(0,0)"/>
<path d="" fill="#FF00FF" transform="translate(0,0)"/>
<path d="" fill="#FF00FF" transform="translate(0,0)"/>
<path d="" fill="#FF80FF" transform="translate(0,0)"/>
<path d="" fill="#FF00FF" transform="translate(0,0)"/>
<path d="" fill="#FF80FF" transform="translate(0,0)"/>
<path d="" fill="#FF00FF" transform="translate(0,0)"/>
<path d="" fill="#CC66FF" transform="translate(0,0)"/>
<path d="" fill="#FF00FF" transform="translate(0,0)"/>
<path d="" fill="#FF00FF" transform="translate(0,0)"/>
<path d="" fill="#FF00FF" transform="translate(0,0)"/>
<path d="" fill="#FF80FF" transform="translate(0,0)"/>
<path d="" fill="#FF00FF" transform="translate(0,0)"/>
<path d="" fill="#FF00FF" transform="translate(0,0)"/>
<path d="" fill="#FF80FF" transform="translate(0,0)"/>
<path d="" fill="#FF00FF" transform="translate(0,0)"/>
<path d="" fill="#FF00FF" transform="translate(0,0)"/>
<path d="" fill="#FF80FF" transform="translate(0,0)"/>
<path d="" fill="#FF55FF" transform="translate(0,0)"/>
<path d="" fill="#FF00FF" transform="translate(0,0)"/>
<path d="" fill="#FF00FF" transform="translate(0,0)"/>
<path d="" fill="#FF00FF" transform="translate(0,0)"/>
<path d="" fill="#FF00FF" transform="translate(0,0)"/>
<path d="" fill="#FF00FF" transform="translate(0,0)"/>
<path d="" fill="#FF00FF" transform="translate(0,0)"/>
<path d="" fill="#FF00FF" transform="translate(0,0)"/>
<path d="" fill="#FF00FF" transform="translate(0,0)"/>
<path d="" fill="#FF00FF" transform="translate(0,0)"/>
<path d="" fill="#AA55FF" transform="translate(0,0)"/>
<path d="" fill="#FF00FF" transform="translate(0,0)"/>
<path d="" fill="#AA55FF" transform="translate(0,0)"/>
<path d="" fill="#FF00FF" transform="translate(0,0)"/>
<path d="" fill="#FF00FF" transform="translate(0,0)"/>
<path d="" fill="#FF00FF" transform="translate(0,0)"/>
<path d="" fill="#FF00FF" transform="translate(0,0)"/>
<path d="" fill="#FF00FF" transform="translate(0,0)"/>
<path d="" fill="#FF55FF" transform="translate(0,0)"/>
<path d="" fill="#FF00FF" transform="translate(0,0)"/>
<path d="" fill="#FF55FF" transform="translate(0,0)"/>
<path d="" fill="#AA55FF" transform="translate(0,0)"/>
<path d="" fill="#CC66FF" transform="translate(0,0)"/>
<path d="" fill="#FF00FF" transform="translate(0,0)"/>
<path d="" fill="#AA55FF" transform="translate(0,0)"/>
<path d="" fill="#8080FF" transform="translate(0,0)"/>
<path d="" fill="#8080FF" transform="translate(0,0)"/>
<path d="" fill="#FF00FF" transform="translate(0,0)"/>
<path d="" fill="#FF00FF" transform="translate(0,0)"/>
<path d="" fill="#8080FF" transform="translate(0,0)"/>
<path d="" fill="#AA55FF" transform="translate(0,0)"/>
<path d="" fill="#FF00FF" transform="translate(0,0)"/>
<path d="" fill="#FF00FF" transform="translate(0,0)"/>
</svg>
